<?xml version="1.0" encoding="UTF-8" standalone="no"?>
<svg
   xmlns:dc="http://purl.org/dc/elements/1.1/"
   xmlns:cc="http://creativecommons.org/ns#"
   xmlns:rdf="http://www.w3.org/1999/02/22-rdf-syntax-ns#"
   xmlns:svg="http://www.w3.org/2000/svg"
   xmlns="http://www.w3.org/2000/svg"
   xmlns:sodipodi="http://sodipodi.sourceforge.net/DTD/sodipodi-0.dtd"
   xmlns:inkscape="http://www.inkscape.org/namespaces/inkscape"
   inkscape:export-ydpi="576"
   inkscape:export-xdpi="576"
   inkscape:export-filename="D:\project\finish project september adnan\expanded line\png\5 - Speed Test.png"
   sodipodi:docname="6 - 404 Error.svg"
   inkscape:version="1.0 (4035a4fb49, 2020-05-01)"
   id="svg831"
   version="1.1"
   viewBox="0 0 22.577778 22.577778"
   height="64pt"
   width="64pt">
  <defs
     id="defs825">
    <pattern
       y="0"
       x="0"
       height="6"
       width="6"
       patternUnits="userSpaceOnUse"
       id="EMFhbasepattern" />
    <pattern
       y="0"
       x="0"
       height="6"
       width="6"
       patternUnits="userSpaceOnUse"
       id="EMFhbasepattern-9" />
    <pattern
       y="0"
       x="0"
       height="6"
       width="6"
       patternUnits="userSpaceOnUse"
       id="EMFhbasepattern-0" />
    <pattern
       y="0"
       x="0"
       height="6"
       width="6"
       patternUnits="userSpaceOnUse"
       id="EMFhbasepattern-7" />
    <pattern
       y="0"
       x="0"
       height="6"
       width="6"
       patternUnits="userSpaceOnUse"
       id="EMFhbasepattern-2" />
    <pattern
       y="0"
       x="0"
       height="6"
       width="6"
       patternUnits="userSpaceOnUse"
       id="EMFhbasepattern-98" />
    <pattern
       y="0"
       x="0"
       height="6"
       width="6"
       patternUnits="userSpaceOnUse"
       id="EMFhbasepattern-6" />
    <pattern
       y="0"
       x="0"
       height="6"
       width="6"
       patternUnits="userSpaceOnUse"
       id="EMFhbasepattern-01" />
    <pattern
       y="0"
       x="0"
       height="6"
       width="6"
       patternUnits="userSpaceOnUse"
       id="EMFhbasepattern-07" />
    <pattern
       y="0"
       x="0"
       height="6"
       width="6"
       patternUnits="userSpaceOnUse"
       id="EMFhbasepattern-8" />
    <pattern
       y="0"
       x="0"
       height="6"
       width="6"
       patternUnits="userSpaceOnUse"
       id="EMFhbasepattern-4" />
    <pattern
       y="0"
       x="0"
       height="6"
       width="6"
       patternUnits="userSpaceOnUse"
       id="EMFhbasepattern-40" />
    <pattern
       y="0"
       x="0"
       height="6"
       width="6"
       patternUnits="userSpaceOnUse"
       id="EMFhbasepattern-08" />
    <pattern
       y="0"
       x="0"
       height="6"
       width="6"
       patternUnits="userSpaceOnUse"
       id="EMFhbasepattern-04" />
    <pattern
       y="0"
       x="0"
       height="6"
       width="6"
       patternUnits="userSpaceOnUse"
       id="EMFhbasepattern-014" />
    <pattern
       y="0"
       x="0"
       height="6"
       width="6"
       patternUnits="userSpaceOnUse"
       id="EMFhbasepattern-27" />
    <pattern
       y="0"
       x="0"
       height="6"
       width="6"
       patternUnits="userSpaceOnUse"
       id="EMFhbasepattern-09" />
    <pattern
       y="0"
       x="0"
       height="6"
       width="6"
       patternUnits="userSpaceOnUse"
       id="EMFhbasepattern-5" />
    <pattern
       y="0"
       x="0"
       height="6"
       width="6"
       patternUnits="userSpaceOnUse"
       id="EMFhbasepattern-018" />
  </defs>
  <sodipodi:namedview
     inkscape:document-rotation="0"
     inkscape:snap-global="true"
     inkscape:snap-nodes="false"
     inkscape:bbox-nodes="true"
     inkscape:snap-bbox="true"
     showguides="true"
     inkscape:snap-midpoints="true"
     inkscape:snap-smooth-nodes="true"
     inkscape:snap-intersection-paths="true"
     inkscape:object-paths="true"
     inkscape:showpageshadow="false"
     inkscape:pagecheckerboard="true"
     inkscape:window-maximized="1"
     inkscape:window-y="-8"
     inkscape:window-x="-8"
     inkscape:window-height="706"
     inkscape:window-width="1366"
     units="pt"
     showgrid="false"
     inkscape:current-layer="layer1"
     inkscape:document-units="pt"
     inkscape:cy="42.666667"
     inkscape:cx="42.666667"
     inkscape:zoom="6.2578125"
     inkscape:pageshadow="2"
     inkscape:pageopacity="0.0"
     borderopacity="1.0"
     bordercolor="#666666"
     pagecolor="#ffffff"
     id="base">
    <inkscape:grid
       id="grid1378"
       type="xygrid" />
    <sodipodi:guide
       inkscape:locked="false"
       id="guide1380"
       orientation="78.000048,0"
       position="0.97013831,21.607643" />
    <sodipodi:guide
       inkscape:locked="false"
       id="guide1382"
       orientation="0,78.000005"
       position="0.97013831,0.97013129" />
    <sodipodi:guide
       inkscape:locked="false"
       id="guide1384"
       orientation="-78.000048,0"
       position="21.607639,0.97013129" />
    <sodipodi:guide
       inkscape:locked="false"
       id="guide1386"
       orientation="0,-78.000005"
       position="21.607639,21.607643" />
  </sodipodi:namedview>
  <metadata
     id="metadata828">
    <rdf:RDF>
      <cc:Work
         rdf:about="">
        <dc:format>image/svg+xml</dc:format>
        <dc:type
           rdf:resource="http://purl.org/dc/dcmitype/StillImage" />
        <dc:title></dc:title>
      </cc:Work>
    </rdf:RDF>
  </metadata>
  <g
     transform="translate(0,-274.42223)"
     id="layer1"
     inkscape:groupmode="layer"
     inkscape:label="Icon">
    <path
       d="m 2.9744085,278.36518 c -1.1042193,0 -2.00427018,0.90006 -2.00427018,2.00427 v 10.68594 c 0,1.10423 0.90005418,2.00166 2.00427018,2.00166 H 19.603372 c 1.104217,0 2.004284,-0.89743 2.004267,-2.00166 v -10.68594 c 1.4e-5,-1.10421 -0.900047,-2.00427 -2.004267,-2.00427 z m 0,0.66852 h 1.4205301 l 0.6450439,1.23204 c 0.2476636,0.47331 0.7402492,0.77158 1.2744365,0.77158 h 14.625348 v 2.00166 H 1.6380102 v -2.66953 c 0,-0.74577 0.5906325,-1.33575 1.3363983,-1.33575 z m 2.1738427,0 H 19.603372 c 0.745767,0 1.336409,0.58998 1.336395,1.33575 H 6.314419 c -0.2869411,0 -0.5498389,-0.15992 -0.6828723,-0.41416 z m 10.1811318,0.33263 a 0.33393614,0.33393614 0 0 0 -0.333282,0.33525 0.33393614,0.33393614 0 0 0 0.333282,0.33263 h 0.335242 a 0.33393614,0.33393614 0 0 0 0.33263,-0.33263 0.33393614,0.33393614 0 0 0 -0.33263,-0.33525 z m 2.003616,0 a 0.33393614,0.33393614 0 0 0 -0.332631,0.33525 0.33393614,0.33393614 0 0 0 0.332631,0.33263 h 0.333284 a 0.33393614,0.33393614 0 0 0 0.335242,-0.33263 0.33393614,0.33393614 0 0 0 -0.335242,-0.33525 z m 2.00427,0 a 0.33393614,0.33393614 0 0 0 -0.335241,0.33525 0.33393614,0.33393614 0 0 0 0.335241,0.33263 h 0.33263 a 0.33393614,0.33393614 0 0 0 0.335241,-0.33263 0.33393614,0.33393614 0 0 0 -0.335241,-0.33525 z m -16.6981022,2.33952 a 0.33393614,0.33393614 0 0 0 -0.3332848,0.33263 0.33393614,0.33393614 0 0 0 0.3332848,0.33523 h 0.3352417 a 0.33393614,0.33393614 0 0 0 0.3326302,-0.33523 0.33393614,0.33393614 0 0 0 -0.3326302,-0.33263 z m 2.0036157,0 a 0.33393614,0.33393614 0 0 0 -0.3326303,0.33263 0.33393614,0.33393614 0 0 0 0.3326303,0.33523 H 4.978024 a 0.33393614,0.33393614 0 0 0 0.3332815,-0.33523 0.33393614,0.33393614 0 0 0 -0.3332815,-0.33263 z m 2.0042668,0 a 0.33393614,0.33393614 0 0 0 -0.3326303,0.33263 0.33393614,0.33393614 0 0 0 0.3326303,0.33523 h 0.3352415 a 0.33393614,0.33393614 0 0 0 0.3326303,-0.33523 0.33393614,0.33393614 0 0 0 -0.3326303,-0.33263 z m 2.0042696,0 a 0.33393614,0.33393614 0 0 0 -0.3352411,0.33263 0.33393614,0.33393614 0 0 0 0.3352411,0.33523 h 0.3326305 a 0.33393614,0.33393614 0 0 0 0.3352419,-0.33523 0.33393614,0.33393614 0 0 0 -0.3352419,-0.33263 z m 2.0042671,0 a 0.33393614,0.33393614 0 0 0 -0.335242,0.33263 0.33393614,0.33393614 0 0 0 0.335242,0.33523 h 0.33263 a 0.33393614,0.33393614 0 0 0 0.335242,-0.33523 0.33393614,0.33393614 0 0 0 -0.335242,-0.33263 z m 2.001659,0 a 0.33393614,0.33393614 0 0 0 -0.333285,0.33263 0.33393614,0.33393614 0 0 0 0.333285,0.33523 h 0.335242 a 0.33393614,0.33393614 0 0 0 0.332629,-0.33523 0.33393614,0.33393614 0 0 0 -0.332629,-0.33263 z m -11.0192348,2.001 H 20.939767 v 7.34854 c 0,0.74578 -0.590626,1.3364 -1.336395,1.3364 H 2.9744085 c -0.7457691,0 -1.3363983,-0.59062 -1.3363983,-1.3364 z m 8.0438121,1.3364 a 0.33396954,0.33396954 0 0 0 -0.335238,0.33524 v 5.34167 a 0.33396954,0.33396954 0 0 0 0.335238,0.33523 h 3.2832717 a 0.33396954,0.33396954 0 0 0 0.33263,-0.33523 v -5.34167 a 0.33396954,0.33396954 0 0 0 -0.33263,-0.33524 z m -1.7407713,6.5e-4 a 0.33396954,0.33396954 0 0 0 -0.013692,6.7e-4 0.33396954,0.33396954 0 0 0 -0.2119725,0.0939 l -3.2813114,3.20696 a 0.33396954,0.33396954 0 0 0 0.2315379,0.572 h 2.9506378 v 1.80469 c 6.68e-4,0.18352 0.1497536,0.332 0.3332815,0.33263 0.184493,7.3e-4 0.3346071,-0.14813 0.3352416,-0.33263 v -2.13734 -3.20696 A 0.33396954,0.33396954 0 0 0 7.9410538,285.0439 Z m 9.960684,0 a 0.33396954,0.33396954 0 0 0 -0.01174,6.7e-4 0.33396954,0.33396954 0 0 0 -0.21197,0.0939 l -3.283923,3.20696 a 0.33396954,0.33396954 0 0 0 0.2348,0.572 h 2.948027 v 1.80469 c 6.68e-4,0.1845 0.150749,0.33336 0.335242,0.33263 0.183528,-6.3e-4 0.331998,-0.14911 0.33263,-0.33263 v -2.13734 -3.20696 a 0.33396954,0.33396954 0 0 0 -0.343066,-0.33393 z m -7.88728,0.66722 h 2.352553 l -2.352553,3.82722 z m -2.3982068,0.45786 v 2.08057 H 5.4867521 Z m 9.9606808,0 v 2.08057 h -2.130144 z m -4.947077,0.39132 v 3.82723 h -2.353206 z"
       style="color:#000000;font-style:normal;font-variant:normal;font-weight:normal;font-stretch:normal;font-size:medium;line-height:normal;font-family:sans-serif;font-variant-ligatures:normal;font-variant-position:normal;font-variant-caps:normal;font-variant-numeric:normal;font-variant-alternates:normal;font-variant-east-asian:normal;font-feature-settings:normal;font-variation-settings:normal;text-indent:0;text-align:start;text-decoration:none;text-decoration-line:none;text-decoration-style:solid;text-decoration-color:#000000;letter-spacing:normal;word-spacing:normal;text-transform:none;writing-mode:lr-tb;direction:ltr;text-orientation:mixed;dominant-baseline:auto;baseline-shift:baseline;text-anchor:start;white-space:normal;shape-padding:0;shape-margin:0;inline-size:0;clip-rule:nonzero;display:inline;overflow:visible;visibility:visible;isolation:auto;mix-blend-mode:normal;color-interpolation:sRGB;color-interpolation-filters:linearRGB;solid-color:#000000;solid-opacity:1;vector-effect:none;fill:#000000;fill-opacity:1;fill-rule:nonzero;stroke:none;stroke-width:0.529167;stroke-linecap:round;stroke-linejoin:round;stroke-miterlimit:4;stroke-dasharray:none;stroke-dashoffset:0;stroke-opacity:1;color-rendering:auto;image-rendering:auto;shape-rendering:auto;text-rendering:auto;enable-background:accumulate;stop-color:#000000"
       id="path989" />
  </g>
</svg>
